<svg xmlns="http://www.w3.org/2000/svg" width="388pt" height="76pt" viewBox="0 0 388 76"><g id="surface1"><path d="M33.61 0C15.077 0 0 15.102 0 33.66c0 18.555 15.078 33.66 33.61 33.66 18.538 0 33.617-15.105 33.617-33.66C67.227 15.102 52.148 0 33.609 0" fill="#00285e"/><path d="M63.727 33.66c0-16.656-13.485-30.16-30.122-30.16C16.977 3.5 3.492 17 3.492 33.66c0 16.656 13.485 30.156 30.113 30.156 16.641 0 30.122-13.5 30.122-30.156" fill="#fff"/><path d="M52.781 33.66c0-10.605-8.582-19.195-19.172-19.195-10.586 0-19.168 8.598-19.168 19.195 0 10.606 8.582 19.2 19.168 19.2 10.59 0 19.172-8.594 19.172-19.2" fill="#6caddf"/><path d="M33.61 54.383c-11.407 0-20.688-9.297-20.688-20.719 0-11.426 9.281-20.719 20.687-20.719 11.414 0 20.696 9.293 20.696 20.72-.004 11.417-9.285 20.718-20.696 20.718zm0-40.281c-10.77 0-19.532 8.773-19.532 19.562 0 10.785 8.762 19.559 19.531 19.559 10.774 0 19.54-8.778 19.54-19.559 0-10.789-8.766-19.562-19.54-19.562zm0 0" fill="#00285e"/><path d="M33.61 65.945c-17.774 0-32.235-14.484-32.235-32.285 0-17.8 14.46-32.289 32.234-32.289 17.778 0 32.243 14.484 32.243 32.29-.004 17.8-14.465 32.284-32.243 32.284m0-63.863c-17.386 0-31.53 14.168-31.53 31.582s14.144 31.582 31.53 31.582c17.391 0 31.54-14.168 31.54-31.582 0-17.418-14.149-31.582-31.54-31.582" fill="#6caddf"/><path d="M6.707 32.926l-.547.133-.14-.559.894-.266h.473v3.149h-.68zm1.465 1.597v-.011c0-.38.176-.602.504-.754-.242-.149-.399-.348-.399-.684v-.008c0-.48.438-.863 1.094-.863.66 0 1.098.379 1.098.863v.008c0 .332-.156.535-.399.684.317.168.504.367.504.738v.008c0 .578-.515.922-1.207.922-.683 0-1.195-.36-1.195-.903zm1.746-.058v-.008c0-.242-.227-.387-.54-.387-.316 0-.542.145-.542.387v.008c0 .215.2.39.543.39.34 0 .539-.171.539-.39zm-.094-1.317v-.007c0-.196-.168-.368-.445-.368-.281 0-.45.172-.45.364v.008c0 .218.176.386.45.386.273 0 .445-.164.445-.383zm47.906.946a.959.959 0 0 1-.632.215c-.676 0-1.114-.375-1.114-1.012v-.008c0-.633.485-1.098 1.192-1.098.418 0 .664.106.902.34.223.227.367.567.367 1.18v.008c0 1.02-.472 1.707-1.363 1.707-.457 0-.766-.153-1.031-.371l.36-.524c.23.188.421.266.683.266.476.012.61-.434.636-.703zm.016-.82v-.008c0-.278-.207-.48-.55-.48-.344 0-.532.194-.532.472v.012c0 .273.207.468.543.468.34 0 .54-.199.54-.465zm2.891 1.429h-1.528l-.113-.484 1.715-1.989h.578v1.918h.418v.559h-.418v.676h-.656v-.68zm0-.558v-.977l-.828.977zm0 0" fill="#6caddf"/><path d="M33.61 53.227c-10.77 0-19.536-8.778-19.536-19.567S22.84 14.094 33.61 14.094c10.778 0 19.54 8.777 19.54 19.566 0 10.79-8.762 19.567-19.54 19.567m0-38.407c-10.367 0-18.808 8.45-18.808 18.84 0 10.387 8.441 18.84 18.808 18.84 10.38 0 18.817-8.453 18.817-18.84 0-10.39-8.438-18.84-18.817-18.84" fill="#fff"/><path d="M33.25 16.82c-9.645 0-15.207 1.27-15.207 1.27s-2.223 8.457-.957 19.3c.531 4.551 4.227 14.34 16.469 17.688C45.797 51.73 49.488 41.941 50.02 37.391c1.265-10.844-.961-19.301-.961-19.301s-5.563-1.27-15.207-1.27zm0 0" fill-rule="evenodd" fill="#00285e"/><path d="M48.344 34.863c-.114 3.29-.617 13.125-14.785 18.532-14.059-5.254-14.79-15.43-14.79-18.532zm0 0" fill-rule="evenodd" fill="#96c1e7"/><path d="M47.922 34.32c.379-8.148-1-14.754-1-14.754s-5.285-1.011-13.348-1.011c-8.074 0-13.445 1.12-13.445 1.12s-1.465 6.641-1.067 14.645zm0 0" fill-rule="evenodd" fill="#fff"/><path d="M33.996 53.102L19.043 35.004c-.543 3.726 2.48 14.723 14.953 18.098zM23.504 34.883l13.832 16.715c1.398-.664 2.422-1.325 3.41-2.118L28.664 34.883zm9.606.012l10.214 12.343c1.008-1.14 1.856-2.16 2.453-3.254l-7.511-9.09zm14.988.003l-5.11-.007 4.293 5.18c.73-1.61.817-4.29.817-5.173zm0 0" fill="#6caddf"/><path d="M39.598 41.676c0-.004 0-.004 0 0a.41.41 0 0 0-.254-.254l-.848-.3a.406.406 0 0 0-.226-.005 1.258 1.258 0 0 0-.485-.746c-.027-.023-.062-.043-.094-.062a1.433 1.433 0 0 0-.187-.102c-.11-.047-.223-.078-.324-.113a2.578 2.578 0 0 1-.813-.383 2.195 2.195 0 0 1-.554-.59 1.648 1.648 0 0 1-.09-.133 1.194 1.194 0 0 0-.32-.336 1.214 1.214 0 0 0-.735-.238.727.727 0 0 0-.176.023c0-.003.004-.003.004-.011a.403.403 0 0 0-.074-.301l-.527-.71a.41.41 0 0 0-.32-.161.4.4 0 0 0-.321.156l-.55.715a.407.407 0 0 0-.075.313c-.047-.004-.09-.016-.133-.016-.266 0-.523.082-.734.238l-.086.07a.89.89 0 0 0-.153.145c-.082.09-.148.184-.214.273-.157.215-.301.418-.622.649a2.09 2.09 0 0 1-.734.34c-.05.015-.105.027-.152.047a1.25 1.25 0 0 0-.91.964.377.377 0 0 0-.27-.007l-.844.28a.4.4 0 0 0-.257.25v.005a.403.403 0 0 0 .054.351l.512.739a.395.395 0 0 0 .242.156 1.2 1.2 0 0 0-.062.914.487.487 0 0 0 .039.105c.023.067.05.125.09.192.058.097.125.195.19.285.161.215.306.418.43.781.11.344.102.578.098.801v.156a1.243 1.243 0 0 0 .621 1.152.37.37 0 0 0-.05.192l.003.883a.4.4 0 0 0 .168.32l.004.004a.43.43 0 0 0 .352.063l.863-.258a.425.425 0 0 0 .188-.133c.258.242.62.371.968.336a.75.75 0 0 0 .208-.028c.12-.027.23-.062.34-.101.25-.078.492-.16.882-.16.36 0 .582.078.797.152.05.02.098.04.145.05.148.06.304.095.464.095.32 0 .625-.125.856-.344.05.059.101.105.18.129l.847.265c.121.04.254.02.356-.05v-.008a.375.375 0 0 0 .168-.313l.023-.894c0-.07-.02-.137-.05-.192.257-.148.468-.39.562-.695.015-.039.023-.07.035-.11.016-.066.027-.132.031-.202.008-.121.008-.235.008-.348 0-.266 0-.52.125-.883.11-.344.25-.527.39-.707.032-.043.067-.086.094-.129a1.24 1.24 0 0 0 .152-1.355.404.404 0 0 0 .188-.133l.52-.723a.424.424 0 0 0 .047-.355zm0 0" fill="#00285e"/><path d="M33.094 43.586a.502.502 0 0 1 1.004 0 .502.502 0 1 1-1.004 0zm0 0" fill="#ffc758"/><path d="M33.582 39.348c-.086-.301-.273-.57-.516-.72l.516-.671.5.672c-.25.168-.414.418-.5.719m-4.016 2.941a1.283 1.283 0 0 1-.539-.691l-.797.265.485.692a1.24 1.24 0 0 1 .851-.266m1.555 4.652a1.315 1.315 0 0 1-.832.29l.008.828.812-.243c-.105-.254-.097-.578.012-.875m4.93.004c.105.293.117.594.023.871l.801.254.023-.84a1.245 1.245 0 0 1-.847-.285m1.515-4.656c.325-.016.61.07.844.246l.488-.672-.8-.281c-.067.273-.262.531-.532.707m-5 4.68a.672.672 0 0 1-.671-.672c0-.05-.047-.07-.079-.035-.234.297-.43.554-.441.879-.008.464.383.843.855.843.028 0 .06 0 .086-.004.043 0 .09-.003.141-.02.34-.081.621-.245 1.191-.245.47 0 .727.129.973.203a.813.813 0 0 0 .324.062.848.848 0 0 0 .852-.847c-.004-.32-.2-.578-.442-.88-.023-.026-.062-.007-.062.04 0 .367-.3.672-.676.672-.285 0-.644-.238-1-.238-.328 0-.765.242-1.05.242zm-.445-.926c0 .309.258.562.566.562.032.008.067 0 .114-.007.011-.004.027-.008.043-.016.008 0 .011-.004.02-.004.19-.062.378-.152.714-.152.352 0 .516.101.703.148.067.024.125.04.2.04a.563.563 0 0 0 .515-.794c-.016-.03-.027-.058-.047-.082 0 0-.953-1.297-.988-1.336-.047-.062-.11-.03-.152-.023a.902.902 0 0 1-.243.043.642.642 0 0 1-.234-.043c-.062-.024-.113-.043-.152.023-.035.055-.723.98-.934 1.278a.591.591 0 0 0-.125.363zm4.387-.434a.673.673 0 0 1-.848.434c-.05-.016-.086.02-.058.059.21.32.398.582.707.687a.85.85 0 0 0 1.074-.543c.008-.027.012-.059.023-.086a.65.65 0 0 0 .028-.137c.023-.343-.043-.66.132-1.203.145-.441.348-.64.5-.855a.841.841 0 0 0-.387-1.348c-.308-.094-.62.008-.976.14-.039.016-.027.06.016.067.355.117.55.496.433.848-.09.266-.43.531-.539.867-.11.316-.015.805-.105 1.07zm-1.02.137a.573.573 0 0 0 .719-.36.306.306 0 0 0 .023-.109v-.067c.004-.202-.03-.41.07-.722.11-.332.255-.46.36-.62a.57.57 0 0 0-.266-.89.663.663 0 0 0-.23-.025 1.023 1.023 0 0 1-.09.016l-1.586.515c-.07.032-.066.098-.066.141a.996.996 0 0 1-.031.238.816.816 0 0 1-.118.207c-.043.051-.074.09-.027.153.043.047.711.984.934 1.277a.56.56 0 0 0 .308.246zm.926-4.3a.667.667 0 0 1 .152.937c-.027.043-.004.086.043.074.371-.102.676-.195.875-.453.286-.371.192-.906-.187-1.184-.024-.011-.047-.03-.078-.047a.46.46 0 0 0-.125-.066c-.32-.133-.653-.164-1.11-.5-.382-.27-.515-.52-.672-.73a.858.858 0 0 0-.222-.239.861.861 0 0 0-1.192.188c-.183.265-.183.59-.164.969.004.039.047.042.07.007a.682.682 0 0 1 .946-.144c.227.164.379.57.668.777.27.184.77.246.996.41zm-.184 1.003a.558.558 0 0 0-.125-.781.242.242 0 0 0-.093-.059l-.043-.011c-.004-.008-.016-.008-.02-.008-.195-.067-.398-.098-.668-.293-.285-.203-.36-.379-.484-.531a.601.601 0 0 0-.137-.145.573.573 0 0 0-.789.125.556.556 0 0 0-.094.215c-.004.027-.015.059-.015.09 0 0 .004 1.605.011 1.652.004.074.067.09.11.106a.87.87 0 0 1 .215.101c.062.05.132.117.168.172.03.059.066.102.136.07.063-.023 1.164-.367 1.516-.488a.557.557 0 0 0 .312-.215zm-3.824-2.187a.684.684 0 0 1 .95.148c.027.04.074.028.078-.02.02-.382.02-.703-.164-.968a.85.85 0 0 0-1.188-.188l-.07.059a.757.757 0 0 0-.106.098c-.222.261-.355.562-.812.894-.383.274-.66.324-.914.403a.9.9 0 0 0-.297.14.841.841 0 0 0-.192 1.18c.196.258.508.36.88.457.038.008.058-.028.027-.067a.674.674 0 0 1 .148-.941c.227-.164.664-.18.95-.387.269-.195.476-.644.71-.808zm.907.488a.574.574 0 0 0-.793-.125.396.396 0 0 0-.086.078c-.008.016-.02.024-.028.031-.004.012-.008.012-.015.02-.121.164-.211.348-.489.543-.277.203-.472.223-.652.293a.562.562 0 0 0-.133 1.027c.028.016.055.028.078.04 0 0 1.543.491 1.59.503.078.016.11-.035.137-.074.031-.031.105-.125.168-.176a.64.64 0 0 1 .219-.097c.066-.016.113-.028.109-.106-.008-.066.004-1.21 0-1.578a.538.538 0 0 0-.105-.379zm-3.274 2.941a.675.675 0 0 1 .434-.847c.047-.012.05-.067.007-.078-.355-.133-.668-.239-.976-.145a.838.838 0 0 0-.547 1.066c.012.024.02.051.035.079a.597.597 0 0 0 .059.129c.183.292.43.511.605 1.05.145.442.102.723.102.985a.77.77 0 0 0 .039.32.856.856 0 0 0 1.078.543c.3-.105.492-.367.7-.691.027-.032-.009-.055-.052-.047a.67.67 0 0 1-.851-.43c-.094-.266.027-.68-.078-1.02-.106-.312-.469-.648-.555-.914zm.746-.714a.562.562 0 0 0-.363.71c.008.032.02.067.043.102.012.016.02.023.031.04.004.003.004.007.008.019.117.164.266.308.371.625.11.328.066.52.074.715a.484.484 0 0 0 .028.195.572.572 0 0 0 .984.176l.973-1.34c.043-.067 0-.114-.024-.153-.023-.039-.09-.136-.12-.214a.728.728 0 0 1-.032-.239c.008-.066.008-.117-.067-.136-.066-.016-1.164-.38-1.515-.485a.662.662 0 0 0-.39-.015zm0 0" fill="#ee3124"/><path d="M38.316 26.207l3.457-1.195s-.293 1.445-.21 2.562c.101 1.446.933 2.547.933 2.547l-4.266 1.477zm0 0" fill="#ffc758"/><path d="M42.5 30.125s-.758-1.09-.887-2.352c-.093-.945-.004-1.765.16-2.761-.152.66-.71 2.523-2.265 4.242-.633.7-.906 1.305-1.028 1.723l-.074-8.172s-.82.289-.906.312c-.098.024-.14.098-.14.125-.008.051-.04.074-.102.094-.067.02-.54.191-.875.305-.063.02-.04.082.004.082.386-.02.949-.063 1.008-.067.078-.011.117-.054.125-.105 0-.004-.004.004 0-.012a.16.16 0 0 1 .132-.113l.532-.055-.086 8.793.394.004-.004-.633zm0 0" fill="#e9ab00"/><path d="M27.145 31.82s-.645-.484-.817-1.37c-.172-.919.277-1.458.277-1.458l4.2-1.441s-.262.832-.016 1.785c.309 1.207.957 2.008.957 2.008s-1.535-.29-3.031-.102c-1.418.18-1.57.578-1.57.578zm-4.829-1.05s.524-1.43 2.059-2.993c1.164-1.175 1.926-1.535 1.926-1.535s-.672.965-.957 2.563c-.176.988.02 2.23.02 2.23s-.786-.164-1.692-.262c-.766-.074-1.356-.003-1.356-.003zm0 0" fill="#ffc758"/><path d="M26.297 26.25s-.66.96-.938 2.563c-.175.988.016 2.234.016 2.234s-.203-.043-.648-.145c-1.883-.43 1.57-4.652 1.57-4.652zm2.457 1.156l-.035-3.785v-.004l-.008.004a54.3 54.3 0 0 1-.895.309c-.101.03-.144.101-.144.125-.004.047-.04.074-.098.093-.066.02-.539.192-.879.305-.062.024-.039.082.008.082.387-.02.95-.062 1.008-.066.074-.012.113-.055.121-.106 0-.004-.004.004 0-.011a.15.15 0 0 1 .133-.114c.043-.004.332-.031.523-.054l-.027 3.23h.293zm4.898-3.418h.29l-.005-3.633s-.82.29-.906.313c-.097.027-.14.094-.144.121-.008.055-.043.078-.102.098-.066.02-.535.183-.879.297-.058.02-.035.082.008.082.387-.02.95-.063 1.004-.067.078-.008.113-.05.125-.105 0-.004-.008.004 0-.004a.138.138 0 0 1 .133-.113l.508-.059zm0 0" fill="#e9ab00"/><path d="M32.91 21.2h.02c.074-.009.113-.052.12-.106v-.004c.013-.043.04-.082.079-.098l-.106-.32c-.093.027-.132.094-.132.117-.004.043-.028.066-.078.086zm-5.222 3.26c.007-.003.011-.003.019-.003.078-.008.113-.05.121-.105.004-.004 0 .007 0-.008a.159.159 0 0 1 .078-.102l-.105-.316c-.09.027-.133.094-.133.117-.004.043-.027.066-.078.086zm9.683-.815h.02c.078-.008.113-.051.125-.106v-.008a.129.129 0 0 1 .074-.097l-.106-.32c-.093.027-.132.093-.132.116 0 .043-.028.075-.075.094zm0 0" fill="#ffc758"/><path d="M31.742 31.34s-.68-.985-.937-2.031c-.227-.899 0-1.758 0-1.758s-.453 1.543-1.52 2.379c-.746.59-2.558 1.129-2.14 1.89.058-.105.246-.304.992-.468.09-.02.18-.04.277-.055l-.008 1.25h.395l-.004-1.3c1.383-.15 2.945.093 2.945.093zm0 0" fill="#e9ab00"/><path d="M26.71 28.742s-.487-.293-.437-1.254c.055-.988.551-1.41.559-1.437l3.266-1.121s-.239.484-.075 1.222c.207.899.782 1.403.782 1.403s-1.637.02-3.117.53c-.723.243-.977.657-.977.657zm0 0" fill="#ffc758"/><path d="M28.648 26.676c.946-.778 1.454-1.758 1.454-1.758s-.133.629-.028 1.184c.18.949.735 1.449.735 1.449s-1.325.023-2.766.422c-.95.261-1.25.64-1.328.77-.313-.72.973-1.274 1.933-2.067zm0 0" fill="#e9ab00"/><path d="M32.379 32.078s-.899-.683-1.117-1.937c-.176-1 .496-1.723.496-1.723l5.101-1.762s-.277 1.137-.023 2.215c.293 1.219 1.41 2.734 1.41 2.734s-2.125-.613-3.96-.378c-1.743.218-1.907.851-1.907.851zm-1.055-8.118c-.039-.776.504-1.394.531-1.425l3.668-1.277s-.238.578-.18 1.066c.114.942.645 1.434.645 1.434s-1.441-.074-3.125.512c-.941.324-1.031.773-1.031.773s-.46-.121-.508-1.082zm0 0" fill="#ffc758"/><path d="M34.23 22.977c.657-.575 1.297-1.715 1.297-1.715s-.238.578-.18 1.066c.114.942.645 1.438.645 1.438s-1.55-.02-3.054.504c-.641.222-1.047.582-1.106.777-.223-.723 1.488-1.274 2.398-2.07zm0 0" fill="#e9ab00"/><path d="M31.855 28.2s-.53-.61-.628-1.552c-.106-.988.476-1.382.523-1.406l4.242-1.472s-.117.308-.008 1.164c.09.714.797 1.699.797 1.699s-2.258.058-3.664.605c-.883.34-1.262.961-1.262.961zm0 0" fill="#ffc758"/><path d="M34.664 25.742c.914-.789 1.328-1.972 1.328-1.972s-.113.668.004 1.19c.215.927.863 1.696.863 1.696s-1.968.028-3.406.508c-.93.316-1.508.867-1.594 1.031-.191-.78 1.891-1.668 2.805-2.453zm3.672 5.93s-1.152-1.492-1.488-2.813c-.22-.867-.059-1.859.011-2.203-.12.465-.597 1.961-1.722 3.004-1.075.992-3.215 1.48-2.758 2.422.078-.156.324-.508 1.187-.723l-.015 1.207.406.004v-1.285c1.898-.3 4.379.387 4.379.387zm0 0" fill="#e9ab00"/><path d="M40.3 34.484c.266-.05.532-.109.923-.207a.25.25 0 0 1-.059-.05c-.434-.477-.36-.985-.094-1.235.957-.894.942-1.543.942-1.543s-2.32.48-5.371.637c-.2.012-.907.324-1.114.328-.418.016-.847.027-1.297.031-5.757.043-7.363-.347-9.257-.707-1.91-.36-2.75-.746-2.75-.746l-.07.207s1.507.582 2.597 1.113c.227.11 1.129 1.465 1.43 1.922h-6.852c-.379-7.851 1.14-14.285 1.14-14.285s5.235-1.12 13.114-1.12l.004-.84c-8.36 0-13.926 1.187-13.926 1.187s-2.433 8.582-1.14 18.8c.535 4.262 4.058 12.231 15.035 15.922l.484-.675-.484-.664c-10.336-3.477-13.352-10.477-13.88-14.493a41.273 41.273 0 0 1-.265-2.636h14.192v-1.203h-7.286c.157-.524.676-.653 1.305-.5.66.156 1.309.32 1.93.293 1.554-.075 1.328-.5 1.469-.489 1.605.098 2.21.489 3.609.465 1.277-.02 1.719-.355 1.844-.355 1.554-.016 2.14.695 3.707.832a.705.705 0 0 0 .12.011zm0 0" fill-rule="evenodd" fill="#ffc758"/><path d="M47.457 19.18s-5.539-1.188-13.906-1.188l.004.84c7.879 0 13.09 1.121 13.09 1.121s1.52 6.434 1.14 14.285h-6.863c-.55-.523-.234-1.226-.059-1.383.813-.722.813-1.214.813-1.214s-1.856.464-4.906.597c-.2.008-1.051.395-1.258.399a58.9 58.9 0 0 1-1.461.027c-3.973-.004-5.922-.074-9.371-.816.062.086.09.12.156.207.02.023 1.512.41 1.531.441.227.309.528.527.887.715a5.497 5.497 0 0 0 2.058.59c1.56.09 1.266-.489 1.407-.489 1.597-.027 2.62.547 4.02.524 1.277-.027 1.32-.418 1.437-.43 1.258-.07 2.543.485 3.644.832h-6.277v1.203h14.156a48.46 48.46 0 0 1-.265 2.633c-.528 4.012-3.555 11.016-13.891 14.492v1.34c10.98-3.687 14.508-11.66 15.047-15.922 1.3-10.218-1.133-18.804-1.133-18.804zm0 0" fill-rule="evenodd" fill="#e9ab00"/><path d="M7.91 22.875l.574-1.09 2.59-.187-1.312-2.246.578-1.094 4.617 2.433-.531 1.008-3.012-1.586 1.285 2.34-.015.024-2.63.261 2.993 1.578-.52.997zm5.278-8.203l.722-.77 5.356 1.977-.825.875-1.175-.457-1.512 1.605.523 1.149-.8.851zm3.058 1.226l-1.707-.656.754 1.668zm1.078-5.031l.903-.547 3.753 1.48-1.664-2.745.965-.59 2.707 4.465-.836.504-3.875-1.524 1.715 2.832-.965.59zm6.996-.902l-.008-.012c-.41-1.426.329-2.91 1.868-3.351.941-.274 1.601-.122 2.195.207l-.469 1.011c-.488-.238-.941-.343-1.445-.195-.844.242-1.25 1.121-1 1.984l.004.016c.25.86 1.05 1.406 1.91 1.156.574-.164.855-.496 1.145-.969l.906.508c-.356.7-.828 1.211-1.793 1.492-1.473.415-2.899-.406-3.313-1.847zm6.254-4.188l1.145-.035.05 2.067 2.118-.051-.055-2.067 1.148-.03.133 5.222-1.148.027-.05-2.094-2.114.051.05 2.098-1.144.027zm11.156 5.817l.961-.45c.258.551.606.977 1.145 1.231.43.2.766.145.894-.129l.004-.016c.121-.265.024-.472-.675-1.043-.836-.683-1.332-1.234-.895-2.175l.004-.016c.398-.86 1.352-1.11 2.32-.66.688.32 1.176.809 1.48 1.414l-.906.54c-.285-.485-.617-.856-1.015-1.04-.399-.188-.692-.102-.797.133l-.004.012c-.144.316.008.507.734 1.097.844.695 1.223 1.293.844 2.117l-.004.016c-.433.941-1.394 1.14-2.414.664a3.36 3.36 0 0 1-1.676-1.695zm7.61.301l-1.262-.965.64-.84 3.434 2.62-.64.84-1.262-.956-2.52 3.308-.914-.699zm8.242 7.414l1.074 2.132c.297.594.36 1.141.207 1.602-.129.39-.425.71-.863.934l-.012.007c-.758.38-1.43.207-1.953-.273l-1.09 1.977-.601-1.204.988-1.75-.41-.808-1.488.75-.52-1.024zm-1.227 3.207c.25.5.665.648 1.051.449l.016-.004c.437-.223.512-.64.262-1.14l-.512-1.02-1.34.676zM38.25 9.273l1.926.418.531-.933-2.238-.485.222-1.035 2.73.59.216-.996-3.844-.836-1.105 5.106 3.882.84.22-.997-2.767-.601zm15.473 4.985l-4 3.36 2.558 3.046.778-.656-1.817-2.172.84-.707 1.273 1.527 1.04-.351-1.532-1.832.813-.68 1.793 2.145.781-.657zM24.77 58.777v-.015c0-1.512 1.136-2.75 2.765-2.75 1 0 1.598.332 2.09.82l-.742.855c-.41-.37-.828-.597-1.36-.597-.894 0-1.539.746-1.539 1.656v.016c0 .906.63 1.672 1.54 1.672.609 0 .98-.243 1.394-.621l.746.75c-.547.585-1.152.949-2.176.949-1.562 0-2.718-1.211-2.718-2.735zm6.035-2.675h1.164v5.316h-1.164zm3.879 1.078H33.07v-1.078h4.399v1.078h-1.617v4.238h-1.168zm5.32 2.144l-2.04-3.222h1.364l1.266 2.132 1.285-2.132h1.328L41.168 59.3v2.117H40v-2.094zm-25.785 12.52l-.93.226-.242-.957 1.527-.457h.797v5.367h-1.156v-4.18zm2.148 3.25l1.778-1.453c.664-.547.918-.836.918-1.278 0-.453-.297-.695-.715-.695-.414 0-.692.227-1.086.719l-.82-.66c.523-.72 1.03-1.106 1.98-1.106 1.105 0 1.832.649 1.832 1.645v.015c0 .89-.457 1.336-1.399 2.063l-.867.668h2.317v1.011h-3.938zm4.77.222l.707-.847c.402.367.797.582 1.27.582.546 0 .89-.266.89-.739v-.011c0-.457-.387-.723-.942-.723-.335 0-.64.09-.89.2l-.68-.454.153-2.625h3.265v1.028h-2.265l-.063.921a2.58 2.58 0 0 1 .703-.093c1.035 0 1.863.504 1.863 1.707v.015c0 1.125-.796 1.84-2.02 1.84a2.76 2.76 0 0 1-1.991-.8zm8.879-1.398l-2.043-3.227h1.37l1.27 2.137 1.293-2.137h1.336l-2.047 3.204v2.125h-1.172v-2.102zm3.871-3.223h4.011v1.043h-2.851v1.082h2.512v1.047h-2.512v1.121h2.89v1.047h-4.054v-5.34zm6.913-.039h1.083l2.281 5.367h-1.223l-.488-1.195H40.2l-.488 1.195h-1.195zm1.235 3.137l-.707-1.73-.707 1.73zm2.797-3.098h2.434c.68 0 1.203.188 1.55.54.297.3.457.718.457 1.218v.012c0 .86-.464 1.402-1.144 1.652l1.3 1.906h-1.37l-1.137-1.703H46v1.703h-1.172v-5.328zm2.36 2.586c.57 0 .894-.3.894-.754v-.015c0-.5-.348-.758-.918-.758h-1.164v1.527zm2.768 1.965l.692-.832c.48.395.985.645 1.59.645.48 0 .77-.188.77-.504v-.012c0-.3-.18-.453-1.075-.68-1.07-.277-1.761-.57-1.761-1.629v-.015c0-.969.777-1.606 1.863-1.606.777 0 1.438.242 1.977.68l-.606.883c-.469-.328-.933-.528-1.387-.528-.449 0-.683.204-.683.465v.016c0 .351.23.465 1.148.703 1.082.281 1.688.668 1.688 1.602v.011c0 1.063-.805 1.657-1.953 1.657a3.386 3.386 0 0 1-2.262-.856zm30.345-52.433h5.136l5.696 9.175 5.699-9.175h5.137v21.699h-4.735V30.348l-6.097 9.265h-.121l-6.036-9.172v14.07h-4.671V22.813zm34.289-.157h4.394l9.29 21.852h-4.985l-1.984-4.867h-9.16l-1.981 4.867h-4.86zm5.011 12.77l-2.878-7.035-2.88 7.035zm12.641-12.613h4.399l10.148 13.359v-13.36h4.707v21.7h-4.055l-10.492-13.793v13.793h-4.707zm23.488 10.914v-.063c0-6.168 4.645-11.219 11.297-11.219 4.082 0 6.531 1.364 8.543 3.348l-3.039 3.5c-1.668-1.52-3.37-2.45-5.539-2.45-3.652 0-6.285 3.036-6.285 6.755v.062c0 3.719 2.57 6.82 6.285 6.82 2.477 0 3.996-.992 5.695-2.542l3.04 3.07c-2.231 2.387-4.708 3.875-8.887 3.875-6.375 0-11.11-4.93-11.11-11.156zm24.43-10.914h4.766v8.585h8.789v-8.585h4.77v21.699h-4.77V35.8h-8.79v8.71h-4.765zm23.524 0h16.34v4.25h-11.61v4.402h10.215v4.246h-10.215v4.555h11.766v4.246h-16.496zm19.562 18.535l2.82-3.375c1.95 1.609 3.989 2.636 6.47 2.636 1.948 0 3.124-.777 3.124-2.05V38.5c0-1.207-.742-1.828-4.363-2.762-4.363-1.117-7.18-2.32-7.18-6.629v-.062c0-3.938 3.152-6.543 7.578-6.543 3.16 0 5.848.996 8.047 2.762l-2.476 3.593c-1.922-1.332-3.81-2.136-5.637-2.136-1.824 0-2.785.836-2.785 1.89v.063c0 1.426.93 1.89 4.672 2.851 4.394 1.145 6.87 2.727 6.87 6.508v.059c0 4.308-3.277 6.726-7.956 6.726-3.274-.004-6.582-1.148-9.184-3.472zm26.188-14.138h-6.59v-4.4H260.8v4.402h-6.594v17.297h-4.77zm15.484-4.397h16.34v4.25h-11.606v4.402h10.211v4.246h-10.21v4.555h11.761v4.246h-16.496zm20.574 0h9.906c2.75 0 4.891.777 6.313 2.199 1.21 1.215 1.86 2.914 1.86 4.96v.063c0 3.5-1.887 5.703-4.645 6.727l5.293 7.746h-5.57l-4.641-6.942h-3.742v6.946h-4.766v-21.7zm9.598 10.539c2.324 0 3.652-1.243 3.652-3.07v-.063c0-2.047-1.422-3.098-3.742-3.098h-4.734v6.234h4.824zm19.523.375v-.063c0-6.168 4.645-11.219 11.297-11.219 4.086 0 6.531 1.364 8.543 3.348l-3.035 3.5c-1.668-1.52-3.371-2.45-5.54-2.45-3.652 0-6.284 3.036-6.284 6.755v.062c0 3.719 2.57 6.82 6.285 6.82 2.476 0 3.988-.992 5.691-2.542l3.031 3.07c-2.23 2.387-4.707 3.875-8.882 3.875-6.371 0-11.106-4.93-11.106-11.156zm24.016-10.914h4.765v21.699h-4.765zm15.227 4.397h-6.594v-4.4h17.953v4.402h-6.594v17.297h-4.766zm21.1 8.743l-8.323-13.144h5.566l5.172 8.71 5.262-8.71h5.414l-8.324 13.05v8.649h-4.766zm0 0" fill="#00285e"/></g></svg>