<svg xmlns="http://www.w3.org/2000/svg" viewBox="-223 25 400 324" id="sinaweibo_logo" width="100%" height="100%"><g fill="#e0001c"><path d="M115.5 101.8s-.1-.1-.2-.3c-.1-.1-.1-.2-.2-.2-1.4-1.8-6.5-8-10.1-10.7-14.4-13.1-39.2-11.3-43.7-10.3s-11.9 5.4-9.9 16 11.4 9.4 20.2 8.7c7.7-.6 15.2 4.6 17 6 0 0 2.5 2.2 4.1 4.6l.6.9c1.5 2.5 5.5 9.9 4.4 17-1.4 8.7-3.2 18.1 7.2 20.8 10.4 2.7 15.3-4.3 16.7-8.7 1.2-4.3 5.4-28.4-6.1-43.8z"/><path d="M154.3 65.2s-6.3-8.7-10.1-12c-.4-.4-1.3-1.1-1.3-1.1-46.1-39.3-93.1-24.3-97-23.8-4.3.6-10.6 4.5-10.2 17C36.1 57.8 51 58.4 51 58.4c33.3-9.8 58.4 5.1 71.3 15.9 0 0 37.5 34.1 19.9 82.4 0 0-.3 14.9 12.1 16.1 12.4 1.2 16.7-4.9 17.6-9.1.8-3.9 18.7-50-17.6-98.5zM91.5 186.3s-19-6.7-20.3-8.8c-1.3-2.1-.5-6.9 1.7-11.2s3.6-16.9 3.1-21.7c-.5-4.9-.8-15.9-17.8-24.2S5 121.1.4 123c-4.6 2-23.3 8.1-23.3 8.1s-6.7 3.6-4.4-7.3 12.9-54.3-26.8-53.6c-39.7.7-88.7 38.7-105.9 55.6-17.2 16.9-74.8 74.5-60.9 137.8 0 0 6.3 18.5 16.9 29.5 10.6 10.9 25.2 27.5 58.6 39.7S-80.9 349-46.1 349s85-10.9 120.8-36.8c35.7-25.8 50.6-52.7 52-71.2 1.2-18.5-6.4-42.9-35.2-54.7zM-54 325c-66.1 9.2-124.6-18.4-130.7-61.8S-142 177.3-75.9 168c66.1-9.2 124.6 18.4 130.7 61.8 6 43.4-42.7 86-108.8 95.2z"/><path d="M-8.3 239.7c-6.2-29.6-39.2-47.7-73.6-40.4-34.5 7.2-57.4 37.1-51.2 66.6 6.2 29.6 39.2 47.7 73.6 40.4 34.5-7.2 57.4-37 51.2-66.6zm-83.3 28.8c-12.1 0-21.8-9.8-21.8-21.9 0-12.1 9.8-21.9 21.8-21.9s21.8 9.8 21.8 21.9c0 12.1-9.7 21.9-21.8 21.9zm51.4 1.8c-5.8 0-10.5-4.7-10.5-10.5s4.7-10.5 10.5-10.5 10.5 4.7 10.5 10.5c0 5.9-4.7 10.5-10.5 10.5z"/></g></svg>