<svg xmlns="http://www.w3.org/2000/svg" viewBox="-223 25 400 228" id="vk_logo" width="100%" height="100%"><path fill="#45668e" d="M-27.2 252.1h23.9s7.2-.8 10.9-4.8c3.4-3.7 3.3-10.5 3.3-10.5s-.5-32.1 14.4-36.8c14.7-4.7 33.5 31 53.5 44.7 15.1 10.4 26.6 8.1 26.6 8.1l53.4-.7s27.9-1.7 14.7-23.7c-1.1-1.8-7.7-16.2-39.7-45.9-33.5-31.1-29-26.1 11.3-79.8 24.6-32.8 34.4-52.7 31.3-61.3-2.9-8.2-21-6-21-6l-60.1.4s-4.5-.6-7.8 1.4c-3.2 1.9-5.3 6.5-5.3 6.5S72.7 68.9 60 90.5c-26.8 45.5-37.5 47.9-41.9 45.1-10.2-6.6-7.6-26.4-7.6-40.5 0-44.1 6.7-62.5-13-67.2-6.5-1.7-11.4-2.7-28.1-2.9-21.5-.2-39.6.1-49.9 5.1-6.8 3.4-12.1 10.8-8.9 11.3 4 .5 13 2.4 17.7 8.9 6.2 8.4 5.9 27.2 5.9 27.2s3.5 51.9-8.3 58.3c-8.1 4.4-19.2-4.6-43.1-45.9-12.2-21.1-21.5-44.5-21.5-44.5s-1.8-4.4-5-6.7c-3.9-2.8-9.2-3.7-9.2-3.7l-57.2.4s-8.6.2-11.7 4c-2.8 3.3-.2 10.2-.2 10.2s44.7 104.8 95.4 157.5c46.7 48.2 99.4 45 99.4 45z"/></svg>