<svg xmlns="http://www.w3.org/2000/svg" width="35pt" height="35pt" viewBox="0 0 35 35"><g id="surface1"><path d="M17.5-.027C8.953-.027 1.996 6.93 1.996 15.477c0 8.546 6.957 15.5 15.504 15.5s15.504-6.954 15.504-15.5C33.004 6.93 26.047-.027 17.5-.027" fill="#00285e"/><path d="M31.39 15.477c0-7.672-6.218-13.887-13.89-13.887-7.672 0-13.89 6.215-13.89 13.887 0 7.671 6.218 13.886 13.89 13.886 7.672 0 13.89-6.215 13.89-13.886" fill="#fff"/><path d="M26.34 15.477c0-4.883-3.957-8.844-8.84-8.844s-8.84 3.96-8.84 8.844a8.839 8.839 0 0 0 8.84 8.84 8.839 8.839 0 0 0 8.84-8.84" fill="#6caddf"/><path d="M17.5 25.016c-5.262 0-9.543-4.278-9.543-9.543 0-5.258 4.281-9.54 9.543-9.54s9.543 4.282 9.543 9.54c0 5.265-4.281 9.543-9.543 9.543zm0-18.547c-4.969 0-9.012 4.039-9.012 9.004 0 4.968 4.043 9.011 9.012 9.011 4.965 0 9.008-4.043 9.008-9.011 0-4.965-4.04-9.004-9.008-9.004zm0 0" fill="#00285e"/><path d="M17.5 30.344c-8.2 0-14.867-6.672-14.867-14.867C2.633 7.277 9.3.609 17.5.609c8.195 0 14.867 6.668 14.867 14.868 0 8.195-6.672 14.867-14.867 14.867M17.5.93C9.48.93 2.957 7.453 2.957 15.473S9.48 30.02 17.5 30.02s14.543-6.524 14.543-14.547C32.043 7.457 25.52.93 17.5.93" fill="#6caddf"/><path d="M5.094 15.137l-.254.062-.067-.261.415-.122h.214v1.45H5.09v-1.13zm.676.734v-.004c0-.176.078-.277.23-.347a.343.343 0 0 1-.184-.313v-.008c0-.219.204-.394.508-.394.305 0 .508.172.508.394v.008a.343.343 0 0 1-.184.313c.145.078.235.168.235.34v.003c0 .27-.238.426-.559.426-.316 0-.554-.168-.554-.418zm.804-.023v-.004c0-.114-.105-.18-.25-.18-.144 0-.25.066-.25.18v.004c0 .097.094.18.25.18s.25-.079.25-.18zm-.043-.606v-.008c0-.086-.078-.168-.207-.168s-.207.079-.207.168v.004c0 .102.082.176.207.176.125 0 .207-.074.207-.172zm22.09.434a.434.434 0 0 1-.293.097c-.312 0-.512-.171-.512-.464v-.004c0-.29.223-.504.547-.504.196 0 .309.047.418.156.102.102.168.258.168.543v.004c0 .469-.219.785-.629.785a.706.706 0 0 1-.472-.168l.164-.242a.466.466 0 0 0 .316.125c.219 0 .281-.203.293-.328zm.008-.38v-.003c0-.129-.098-.219-.254-.219s-.246.09-.246.219v.004c0 .125.098.215.254.215s.246-.09.246-.215zm1.336.661h-.707l-.051-.227.793-.914h.266v.883h.195v.254h-.195v.313h-.301zm0-.258v-.449l-.383.45zm0 0" fill="#6caddf"/><path d="M17.5 24.484c-4.969 0-9.012-4.043-9.012-9.011 0-4.965 4.043-9.008 9.012-9.008s9.008 4.043 9.008 9.008c0 4.968-4.04 9.011-9.008 9.011m0-17.687c-4.785 0-8.676 3.894-8.676 8.676 0 4.785 3.89 8.68 8.676 8.68 4.785 0 8.676-3.895 8.676-8.68 0-4.782-3.89-8.676-8.676-8.676" fill="#fff"/><path d="M17.336 7.723c-4.45 0-7.016.582-7.016.582s-1.023 3.894-.441 8.89c.246 2.094 1.95 6.602 7.594 8.14 5.648-1.538 7.351-6.046 7.593-8.14.586-4.996-.441-8.89-.441-8.89s-2.566-.582-7.012-.582zm0 0" fill-rule="evenodd" fill="#00285e"/><path d="M24.293 16.031c-.05 1.512-.285 6.043-6.82 8.532-6.48-2.418-6.82-7.106-6.82-8.532zm0 0" fill-rule="evenodd" fill="#96c1e7"/><path d="M24.098 15.777c.175-3.75-.461-6.793-.461-6.793s-2.438-.464-6.157-.464c-3.722 0-6.199.515-6.199.515s-.676 3.059-.492 6.742zm0 0" fill-rule="evenodd" fill="#fff"/><path d="M17.676 24.43l-6.895-8.336c-.25 1.718 1.145 6.781 6.895 8.336zm-4.84-8.39l6.383 7.694a7.559 7.559 0 0 0 1.57-.972l-5.57-6.723zm4.434.003l4.71 5.684c.465-.524.856-.993 1.133-1.497l-3.465-4.187zm6.91.004l-2.356-.008 1.98 2.387c.337-.738.376-1.973.376-2.38zm0 0" fill="#6caddf"/><path d="M20.262 19.164a.193.193 0 0 0-.117-.117l-.391-.137a.163.163 0 0 0-.106 0 .586.586 0 0 0-.351-.418.775.775 0 0 0-.152-.05c-.118-.04-.227-.075-.375-.18a.988.988 0 0 1-.254-.27c-.016-.023-.028-.043-.043-.062a.578.578 0 0 0-.488-.266c-.028 0-.051.008-.079.012v-.004a.195.195 0 0 0-.031-.14l-.246-.329a.185.185 0 0 0-.297 0l-.254.328a.189.189 0 0 0-.035.145.302.302 0 0 0-.059-.008.552.552 0 0 0-.34.11c-.015.007-.027.019-.042.03a.545.545 0 0 0-.07.067 2.198 2.198 0 0 0-.098.129c-.075.098-.141.191-.29.293-.132.098-.238.129-.335.16-.024.008-.047.012-.07.023a.524.524 0 0 0-.196.09.548.548 0 0 0-.227.352.172.172 0 0 0-.125-.004l-.39.129a.178.178 0 0 0-.117.113v.004a.168.168 0 0 0 .023.16l.234.34a.183.183 0 0 0 .114.07.565.565 0 0 0-.008.473.419.419 0 0 0 .039.086c.031.047.062.09.094.129.07.101.14.195.195.363a.96.96 0 0 1 .047.367v.075a.572.572 0 0 0 .285.531.217.217 0 0 0-.023.086l.004.41a.183.183 0 0 0 .238.172l.398-.117a.163.163 0 0 0 .086-.059.597.597 0 0 0 .543.141 1.42 1.42 0 0 0 .152-.043c.118-.04.23-.075.407-.075.168 0 .27.036.37.07l.067.024a.572.572 0 0 0 .61-.117.21.21 0 0 0 .082.059l.39.12c.059.02.117.009.164-.023h.004a.183.183 0 0 0 .074-.144l.012-.414a.181.181 0 0 0-.023-.09.577.577 0 0 0 .258-.317l.015-.05a.393.393 0 0 0 .016-.098c.008-.055.008-.105.008-.156 0-.125 0-.239.054-.41a.92.92 0 0 1 .18-.325.664.664 0 0 0 .043-.058.554.554 0 0 0 .07-.621c.035-.016.067-.032.086-.063l.238-.332a.177.177 0 0 0 .032-.164zm0 0" fill="#00285e"/><path d="M17.262 20.047a.23.23 0 0 1 .23-.23c.13 0 .235.105.235.23 0 .129-.106.23-.235.23a.233.233 0 0 1-.23-.23zm0 0" fill="#ffc758"/><path d="M17.484 18.094a.568.568 0 0 0-.238-.332l.238-.305.235.305a.582.582 0 0 0-.235.332m-1.851 1.355a.584.584 0 0 1-.246-.32l-.367.121.222.32a.558.558 0 0 1 .39-.12m.72 2.14a.62.62 0 0 1-.383.137l.004.382.375-.109a.572.572 0 0 1 .004-.41m2.273.004c.05.136.055.273.012.402l.367.113.012-.386a.556.556 0 0 1-.391-.13m.7-2.144a.631.631 0 0 1 .39.113l.226-.308-.37-.129a.567.567 0 0 1-.247.324m-2.304 2.153a.313.313 0 0 1-.313-.309c0-.023-.023-.031-.035-.016-.11.137-.2.258-.203.403a.388.388 0 0 0 .394.39h.04c.019 0 .038-.004.066-.008.156-.039.285-.113.547-.113.218 0 .336.059.449.094.047.02.098.027.148.027a.387.387 0 0 0 .395-.386c-.004-.149-.094-.27-.203-.407-.012-.011-.028-.004-.028.016 0 .172-.14.312-.312.312-.133 0-.3-.113-.461-.113-.152 0-.356.11-.484.11zm-.207-.426c0 .144.117.258.261.258.016.003.031 0 .051-.004.008-.004.012-.004.02-.004.003-.004.007-.004.011-.004.09-.027.176-.07.328-.07.164 0 .239.046.325.066.03.012.058.02.093.02a.262.262 0 0 0 .262-.262.342.342 0 0 0-.023-.106c-.004-.011-.012-.023-.02-.035 0 0-.441-.598-.457-.613-.02-.027-.047-.016-.066-.012-.024.004-.075.02-.114.02a.298.298 0 0 1-.105-.02c-.031-.012-.05-.02-.07.012-.016.023-.332.45-.43.586a.247.247 0 0 0-.067.168zm2.023-.2a.31.31 0 0 1-.395.2c-.02-.008-.035.008-.023.027.098.149.184.27.324.317a.392.392 0 0 0 .496-.25.116.116 0 0 0 .008-.04c.008-.015.012-.039.016-.062.011-.16-.024-.305.058-.555.067-.203.16-.297.23-.394a.384.384 0 0 0-.179-.621c-.14-.043-.285.004-.45.066-.015.008-.01.027.005.031a.308.308 0 0 1 .203.39c-.043.122-.2.247-.25.4-.047.148 0 .37-.043.492zm-.473.067a.267.267 0 0 0 .332-.168.198.198 0 0 0 .008-.05v-.02c0-.004.004-.008.004-.012 0-.094-.016-.188.031-.332.051-.152.117-.211.168-.285a.404.404 0 0 0 .043-.082.263.263 0 0 0-.168-.328.345.345 0 0 0-.11-.008c-.01 0-.026.004-.042.008 0 0-.707.226-.73.238-.032.012-.032.043-.032.062 0 .02-.004.075-.012.11a.335.335 0 0 1-.054.097c-.02.024-.035.043-.012.067.02.023.328.453.434.59.03.05.078.09.14.113zm.43-1.98a.306.306 0 0 1 .066.43c-.011.019 0 .038.02.034.172-.047.316-.093.406-.21a.385.385 0 0 0-.09-.544.217.217 0 0 0-.03-.023c-.017-.008-.036-.02-.06-.031-.148-.059-.3-.074-.511-.227-.176-.125-.235-.242-.309-.34a.392.392 0 0 0-.648-.023c-.086.125-.086.273-.075.445 0 .02.02.02.032.004a.31.31 0 0 1 .433-.066c.11.074.176.261.309.355.121.09.352.117.457.195zm-.086.46a.254.254 0 0 0-.059-.359c-.011-.008-.027-.02-.043-.027-.007-.004-.015-.004-.02-.008-.003 0-.007 0-.01-.004-.09-.027-.184-.043-.31-.133-.128-.094-.163-.176-.222-.246a.262.262 0 0 0-.43-.008.242.242 0 0 0-.043.098c-.004.016-.004.027-.008.043l.004.762c0 .035.032.039.051.047a.303.303 0 0 1 .176.128c.016.024.031.047.062.032.028-.012.54-.168.7-.223a.286.286 0 0 0 .152-.102zm-1.766-1.007a.316.316 0 0 1 .438.066c.012.02.035.016.039-.008.008-.176.008-.324-.078-.445a.392.392 0 0 0-.547-.086c-.012.012-.023.02-.031.027a.426.426 0 0 0-.051.043c-.102.121-.164.258-.375.414-.176.125-.305.145-.418.184a.388.388 0 0 0-.227.605c.09.122.235.164.407.211.015.004.023-.015.011-.027a.308.308 0 0 1 .07-.434c.106-.078.305-.082.438-.18.125-.09.219-.296.324-.37zm.422.226a.259.259 0 0 0-.363-.058.083.083 0 0 0-.04.035.03.03 0 0 0-.015.015l-.008.008c-.054.074-.097.156-.222.25-.13.094-.219.102-.3.133a.244.244 0 0 0-.087.04.262.262 0 0 0-.058.362.28.28 0 0 0 .082.07.122.122 0 0 0 .039.02l.73.235c.035.007.05-.016.063-.036.015-.015.05-.058.078-.078a.238.238 0 0 1 .101-.047c.028-.007.055-.015.051-.05-.004-.032 0-.559-.004-.727a.251.251 0 0 0-.047-.172zm-1.511 1.352a.308.308 0 0 1 .199-.39c.023-.005.023-.032.004-.036-.164-.063-.309-.11-.45-.066a.386.386 0 0 0-.253.488.125.125 0 0 0 .015.039c.004.02.012.039.028.058.082.133.199.235.277.481.07.207.047.336.05.453a.39.39 0 0 0 .512.398c.141-.046.227-.167.325-.316.011-.015-.004-.027-.024-.023a.31.31 0 0 1-.394-.196c-.04-.125.015-.316-.036-.468-.046-.141-.214-.297-.253-.422zm.343-.328a.263.263 0 0 0-.148.375c.004.007.012.011.015.02 0 0 0 .003.004.007.055.074.122.145.168.289.051.152.032.238.036.328a.25.25 0 0 0 .015.09.261.261 0 0 0 .422.113c.012-.011.023-.02.031-.031 0 0 .434-.598.45-.617.019-.031 0-.055-.012-.07a.434.434 0 0 1-.055-.098.37.37 0 0 1-.016-.11c.004-.027.004-.05-.03-.062-.028-.008-.532-.172-.696-.223a.295.295 0 0 0-.184-.011zm0 0" fill="#ee3124"/><path d="M19.672 12.043l1.594-.55s-.137.663-.098 1.179c.047.664.434 1.172.434 1.172l-1.97.68zm0 0" fill="#ffc758"/><path d="M21.602 13.848s-.352-.504-.41-1.086c-.047-.434-.005-.813.074-1.27a4.568 4.568 0 0 1-1.047 1.95c-.293.324-.418.601-.473.792l-.035-3.761s-.379.132-.418.144c-.047.012-.063.043-.066.055 0 .023-.02.035-.047.043-.028.012-.246.09-.403.14-.027.008-.015.036 0 .036a9.99 9.99 0 0 0 .465-.032c.035-.004.055-.023.059-.046v-.004c.004-.032.031-.051.062-.051.02-.004.157-.02.246-.028l-.039 4.047h.18v-.289zm0 0" fill="#e9ab00"/><path d="M14.52 14.629s-.301-.223-.375-.633c-.082-.422.125-.668.125-.668l1.937-.668s-.121.387-.008.824c.145.555.442.926.442.926s-.711-.133-1.399-.047c-.656.082-.722.266-.722.266zm-2.23-.484s.241-.657.948-1.38c.535-.542.89-.703.89-.703s-.312.442-.44 1.176c-.083.457.007 1.032.007 1.032s-.36-.079-.78-.122c-.352-.035-.626-.003-.626-.003zm0 0" fill="#ffc758"/><path d="M14.125 12.063s-.305.445-.434 1.18c-.082.456.008 1.027.008 1.027l-.3-.067c-.868-.195.726-2.14.726-2.14zm1.137.531l-.02-1.742v-.004.004l-.414.14c-.047.012-.066.043-.066.059-.004.023-.02.035-.047.043l-.406.14c-.028.008-.016.036.004.036.18-.012.437-.028.464-.032a.064.064 0 0 0 .059-.047c0-.004-.004 0 0-.004.004-.03.031-.05.059-.054.02 0 .152-.016.238-.028l-.012 1.489zm2.258-1.571h.132l-.004-1.675-.414.144c-.05.012-.07.043-.07.055 0 .023-.016.035-.043.047-.031.008-.25.086-.406.136-.027.012-.016.04.004.04.18-.012.437-.032.465-.032.035-.004.05-.023.054-.05v-.004a.072.072 0 0 1 .063-.051c.02-.004.144-.016.234-.028zm0 0" fill="#e9ab00"/><path d="M17.176 9.738h.008c.035-.008.054-.027.058-.05v-.004c.004-.02.02-.036.035-.047l-.047-.145c-.043.012-.062.043-.062.055 0 .02-.012.031-.035.039zm-2.406 1.5h.007c.036-.004.051-.023.055-.047.004-.004 0 0 0-.004.004-.019.02-.035.035-.046l-.047-.145a.089.089 0 0 0-.062.055c0 .02-.012.031-.035.039zm4.464-.375h.008c.035-.004.055-.027.059-.05 0 0 0 .003 0 0a.064.064 0 0 1 .035-.047l-.047-.149c-.043.016-.059.043-.062.055 0 .02-.012.031-.036.043zm0 0" fill="#ffc758"/><path d="M16.637 14.406s-.313-.449-.434-.933a1.82 1.82 0 0 1 .004-.809s-.21.707-.703 1.094c-.344.27-1.176.52-.984.87.027-.046.113-.14.457-.218l.128-.023-.003.574h.183l-.004-.598c.637-.066 1.356.043 1.356.043zm0 0" fill="#e9ab00"/><path d="M14.316 13.21s-.226-.136-.199-.581c.028-.453.254-.649.258-.66l1.504-.516s-.11.223-.031.563c.093.414.359.644.359.644s-.758.012-1.437.246c-.336.114-.454.305-.454.305zm0 0" fill="#ffc758"/><path d="M15.21 12.258a2.9 2.9 0 0 0 .669-.809s-.063.29-.012.543c.082.438.34.668.34.668s-.613.012-1.277.195c-.434.122-.575.297-.61.356-.148-.328.446-.586.89-.953zm0 0" fill="#e9ab00"/><path d="M16.93 14.746s-.414-.312-.516-.89c-.078-.458.23-.793.23-.793l2.352-.81s-.129.52-.008 1.017c.133.562.649 1.261.649 1.261s-.98-.281-1.825-.176c-.804.098-.882.391-.882.391zm-.485-3.738c-.015-.356.235-.64.246-.656l1.692-.586s-.11.265-.082.492c.05.433.297.66.297.66s-.664-.035-1.442.234c-.433.153-.476.36-.476.36s-.211-.059-.235-.504zm0 0" fill="#ffc758"/><path d="M17.785 10.555c.3-.266.598-.79.598-.79s-.11.266-.082.493c.05.433.297.66.297.66s-.715-.008-1.407.234c-.296.102-.484.266-.511.36-.106-.336.687-.59 1.105-.957zm0 0" fill="#e9ab00"/><path d="M16.691 12.96s-.246-.284-.293-.714c-.046-.457.223-.64.243-.648l1.957-.676s-.055.14-.004.535c.039.332.367.781.367.781s-1.043.028-1.688.278c-.41.16-.582.445-.582.445zm0 0" fill="#ffc758"/><path d="M17.984 11.828c.426-.367.614-.91.614-.91s-.051.309.004.55c.097.427.394.782.394.782s-.906.012-1.566.234c-.43.145-.7.399-.739.473-.086-.36.872-.766 1.293-1.129zm1.692 2.735s-.531-.688-.688-1.297c-.097-.399-.023-.856.008-1.012-.055.21-.273.902-.793 1.379-.496.46-1.484.683-1.27 1.117.036-.07.149-.234.547-.332l-.007.555h.191v-.594c.871-.137 2.012.184 2.012.184zm0 0" fill="#e9ab00"/><path d="M20.586 15.855c.121-.023.246-.046.426-.097a.053.053 0 0 1-.028-.024c-.199-.218-.164-.453-.043-.566.442-.414.434-.711.434-.711s-1.07.219-2.477.293c-.09.004-.418.148-.511.152-.196.004-.395.012-.598.016-2.656.016-3.394-.164-4.27-.328-.878-.164-1.269-.344-1.269-.344l-.035.094s.7.27 1.2.515c.105.051.523.676.66.883h-3.16c-.177-3.617.526-6.578.526-6.578s2.414-.515 6.047-.515v-.387c-3.855 0-6.422.547-6.422.547s-1.12 3.953-.527 8.66c.25 1.96 1.871 5.633 6.934 7.332l.222-.313-.222-.304c-4.766-1.602-6.157-4.828-6.399-6.676a18.717 18.717 0 0 1-.125-1.211h6.543v-.555h-3.355c.07-.242.308-.3.601-.23.305.07.602.148.89.133.72-.036.614-.23.677-.223.742.043 1.02.227 1.668.21.586-.007.793-.163.847-.163.715-.004.989.324 1.711.387.016 0 .035.003.055.003zm0 0" fill-rule="evenodd" fill="#ffc758"/><path d="M23.883 8.809s-2.555-.551-6.41-.551v.387c3.632 0 6.039.52 6.039.52s.699 2.96.523 6.573h-3.164c-.254-.238-.11-.562-.027-.633.375-.335.375-.562.375-.562s-.856.21-2.262.273c-.09.004-.488.184-.582.184-.191.008-.469.016-.672.016-1.832-.004-2.73-.04-4.32-.375.027.039.043.054.07.093.008.012.7.192.707.204.106.14.242.242.41.328.258.136.633.254.95.273.714.043.582-.226.648-.226.738-.016 1.207.25 1.855.238.59-.008.61-.192.665-.196.578-.03 1.171.223 1.68.383h-2.895v.555H24c-.027.398-.066.805-.121 1.215-.242 1.844-1.637 5.07-6.406 6.672v.617c5.062-1.7 6.687-5.371 6.937-7.332.594-4.707-.527-8.656-.527-8.656zm0 0" fill-rule="evenodd" fill="#e9ab00"/><path d="M5.645 10.512l.27-.508 1.19-.082L6.5 8.887l.266-.504 2.129 1.12-.243.466-1.39-.73.593 1.073-.007.012-1.211.121 1.379.727-.243.46zM8.078 6.73l.336-.355 2.469.91-.38.402-.542-.207-.695.739.242.531-.371.39zm1.414.567l-.785-.305.348.77zm.496-2.317l.418-.253 1.73.683-.769-1.27.45-.269 1.245 2.055-.386.234-1.79-.703.794 1.309-.446.27zm3.227-.417l-.004-.008a1.226 1.226 0 0 1 .863-1.543c.434-.125.739-.055 1.012.093l-.215.465c-.226-.11-.434-.156-.668-.09-.387.114-.574.52-.46.915v.007c.116.395.484.645.882.532.262-.079.395-.227.527-.446l.418.235c-.164.32-.383.554-.828.683a1.21 1.21 0 0 1-1.527-.843zm2.883-1.93l.53-.016.024.953.973-.023-.023-.953.53-.012.06 2.402-.528.016-.027-.965-.973.024.023.964-.527.012zm5.148 2.68l.442-.208c.12.254.277.45.527.567.2.09.351.066.41-.059l.004-.008c.055-.12.012-.218-.313-.48-.386-.316-.613-.57-.414-1v-.008c.184-.394.625-.512 1.07-.304.321.148.544.37.684.652l-.418.246c-.133-.223-.285-.395-.468-.477-.184-.086-.32-.046-.368.059l-.004.008c-.066.144.008.234.34.504.387.32.567.597.387.976v.004c-.203.434-.645.527-1.117.309a1.547 1.547 0 0 1-.762-.782zm3.508.14l-.582-.445.293-.387 1.586 1.207-.297.387-.582-.442-1.16 1.524-.422-.32zm3.801 3.414l.496.98c.137.274.164.524.097.739a.786.786 0 0 1-.398.43l-.008.004c-.347.171-.66.097-.898-.125l-.504.91-.277-.555.457-.805-.188-.37-.687.343-.239-.473zm-.567 1.477c.117.226.305.3.489.207l.003-.004c.204-.102.239-.293.122-.524l-.235-.468-.617.308zM19.64 4.242l.887.196.243-.43-1.032-.223.106-.476 1.258.27.101-.458-1.777-.387-.508 2.352 1.789.387.102-.457-1.278-.278zm7.137 2.301L24.93 8.086l1.18 1.406.359-.305-.84-1 .387-.324.59.703.48-.16-.707-.847.375-.313.828.988.36-.3zm-13.355 20.5v-.008c0-.695.523-1.265 1.277-1.265.461 0 .739.152.965.375l-.344.394c-.187-.168-.379-.273-.625-.273-.414 0-.71.34-.71.761v.008c0 .418.292.77.71.77.282 0 .45-.114.645-.29l.34.348c-.25.27-.532.438-1 .438a1.235 1.235 0 0 1-1.258-1.258zm2.781-1.23h.54v2.445h-.54zm1.789.496h-.742v-.497h2.027v.497h-.746v1.949h-.539zm2.458.984l-.942-1.484h.629l.586.984.593-.984h.614l-.942 1.472v.977h-.539zM8.559 33.059l-.43.105-.113-.441.707-.211h.367v2.472h-.531zm.991 1.5l.817-.672c.305-.25.422-.387.422-.59 0-.207-.137-.317-.328-.317-.188 0-.32.102-.5.329l-.379-.305c.242-.332.477-.508.914-.508.508 0 .848.297.848.758v.004c0 .41-.211.613-.645.953l-.402.309h1.07v.464H9.551zm2.196.101l.324-.39c.188.167.371.265.59.265.25 0 .41-.12.41-.34v-.004c0-.21-.18-.336-.437-.336a1.11 1.11 0 0 0-.41.09l-.313-.207.07-1.207h1.508v.473h-1.043l-.03.426c.1-.028.187-.043.323-.043.477 0 .86.23.86.785v.004c0 .52-.368.851-.934.851-.39 0-.68-.14-.918-.367zm4.094-.644l-.942-1.485h.63l.585.985.598-.985h.613l-.945 1.477v.976h-.54zm1.785-1.489h1.852v.48h-1.313v.5h1.156v.481h-1.156v.516h1.332v.48h-1.871zm3.191-.015h.497l1.054 2.472h-.566l-.223-.55H20.54l-.223.55h-.55zm.567 1.445l-.324-.797-.325.797zm1.293-1.43h1.12c.313 0 .556.09.716.25a.78.78 0 0 1 .21.563v.008a.767.767 0 0 1-.527.761l.598.875h-.629l-.527-.785h-.422v.785h-.543v-2.457zm1.086 1.196c.261 0 .414-.141.414-.348v-.004c0-.234-.164-.351-.426-.351h-.535v.703zm1.278.906l.32-.383c.222.184.453.297.734.297.218 0 .355-.086.355-.23v-.008c0-.137-.086-.207-.496-.313-.496-.125-.812-.262-.812-.75v-.004c0-.445.355-.742.859-.742.355 0 .66.113.91.313l-.277.406c-.219-.153-.434-.242-.64-.242-.208 0-.317.097-.317.215v.007c0 .16.105.215.531.32.496.133.777.31.777.739v.004c0 .488-.37.762-.902.762a1.58 1.58 0 0 1-1.043-.391zm0 0" fill="#00285e"/></g></svg>