<svg xmlns="http://www.w3.org/2000/svg" viewBox="0 0 256 256" id="kakaotalk_logo" width="100%" height="100%"><path fill="#FFE812" d="M256 236c0 11.046-8.954 20-20 20H20c-11.046 0-20-8.954-20-20V20C0 8.954 8.954 0 20 0h216c11.046 0 20 8.954 20 20v216z"/><path d="M128 36C70.562 36 24 72.713 24 118c0 29.28 19.466 54.97 48.748 69.477-1.593 5.494-10.237 35.344-10.58 37.69 0 0-.208 1.76.933 2.433s2.485.15 2.485.15c3.272-.457 37.943-24.81 43.944-29.04 5.994.85 12.167 1.29 18.47 1.29 57.44 0 104-36.712 104-82 0-45.287-46.56-82-104-82z"/><path fill="#FFE812" d="M70.5 146.625c-3.31 0-6-2.57-6-5.73V105.25h-9.362c-3.247 0-5.888-2.636-5.888-5.875s2.642-5.875 5.888-5.875h30.724c3.247 0 5.888 2.636 5.888 5.875s-2.642 5.875-5.888 5.875H76.5v35.645c0 3.16-2.69 5.73-6 5.73zm52.612-.078c-2.502 0-4.416-1.016-4.993-2.65l-2.973-7.778-18.296-.003-2.972 7.783c-.576 1.632-2.49 2.647-4.99 2.647a9.156 9.156 0 0 1-3.815-.828c-1.654-.765-3.244-2.863-1.422-8.52L98.004 99.42c1.01-2.873 4.082-5.833 7.99-5.922 3.92.09 6.99 3.05 8.003 5.93l14.346 37.758c1.826 5.672.236 7.77-1.418 8.532a9.176 9.176 0 0 1-3.814.827zm-11.12-21.056L106 108.468l-5.993 17.025h11.986zM138 145.75c-3.17 0-5.75-2.468-5.75-5.5V99.5c0-3.31 2.748-6 6.125-6s6.125 2.69 6.125 6v35.25h12.75c3.17 0 5.75 2.468 5.75 5.5s-2.58 5.5-5.75 5.5H138zm33.334.797c-3.31 0-6-2.69-6-6V99.5c0-3.31 2.69-6 6-6s6 2.69 6 6v12.896l16.74-16.74c.86-.86 2.044-1.335 3.328-1.335 1.498 0 3.002.648 4.13 1.774 1.05 1.05 1.677 2.4 1.763 3.804.087 1.415-.384 2.712-1.324 3.653l-13.67 13.67 14.77 19.567a5.95 5.95 0 0 1 1.15 4.445 5.956 5.956 0 0 1-2.327 3.957 5.94 5.94 0 0 1-3.608 1.21 5.953 5.953 0 0 1-4.793-2.386L179.42 125.37l-2.082 2.083v13.09a6.01 6.01 0 0 1-6.002 6.004z"/></svg>